{
date = "2013-12-02 21:40:35 +0000";
designer = "Shinji Pons";
designerURL = www.shinjipons.com;
familyName = "Modulo 26";
fontMaster = (
{
alignmentZones = (
"{1280, 10}",
"{0, -10}"
);
ascender = 1280;
capHeight = 1280;
customParameters = (
{
name = familyName;
value = "Modulo 06";
}
);
descender = 0;
guideLines = (
{
position = "{1534, 510}";
},
{
angle = 90;
position = "{850, -124}";
},
{
angle = 90;
position = "{590, -117}";
},
{
position = "{1533, 770}";
},
{
angle = 90;
position = "{80, -86}";
},
{
angle = 90;
position = "{1100, -69}";
},
{
position = "{1520, 1020}";
},
{
position = "{1510, 260}";
},
{
angle = 90;
position = "{1360, -75}";
},
{
angle = 90;
position = "{340, -90}";
},
{
angle = 90;
position = "{210, -86}";
},
{
angle = 90;
position = "{720, -117}";
},
{
angle = 90;
position = "{1230, -69}";
},
{
position = "{1510, 130}";
},
{
position = "{1534, 640}";
},
{
position = "{1520, 1150}";
}
);
horizontalStems = (
60
);
id = "940E2F63-624A-4C3D-A909-721782B4CF41";
verticalStems = (
260
);
weightValue = 6;
widthValue = 128;
xHeight = 1280;
}
);
glyphs = (
{
glyphname = A;
lastChange = "2014-01-05 15:46:04 +0000";
layers = (
{
guideLines = (
{
position = "{1029, 321}";
showMeasurement = 1;
},
{
angle = 90;
position = "{511, 1025}";
showMeasurement = 1;
}
);
layerId = "940E2F63-624A-4C3D-A909-721782B4CF41";
name = Regular;
paths = (
{
closed = 1;
nodes = (
"210 1280 LINE SMOOTH",
"138.202 1280 OFFCURVE",
"80 1221.8 OFFCURVE",
"80 1150 CURVE SMOOTH",
"80 1078.2 OFFCURVE",
"138.202 1020 OFFCURVE",
"210 1020 CURVE SMOOTH",
"1100 1020 LINE",
"1100 260 LINE",
"340 260 LINE",
"340 510 LINE",
"720 510 LINE SMOOTH",
"791.798 510 OFFCURVE",
"850 568.202 OFFCURVE",
"850 640 CURVE SMOOTH",
"850 711.798 OFFCURVE",
"791.798 770 OFFCURVE",
"720 770 CURVE SMOOTH",
"210 770 LINE SMOOTH",
"138.202 770 OFFCURVE",
"80 711.798 OFFCURVE",
"80 640 CURVE SMOOTH",
"80 130 LINE SMOOTH",
"80 58.202 OFFCURVE",
"138.202 0 OFFCURVE",
"210 0 CURVE SMOOTH",
"1230 0 LINE SMOOTH",
"1301.8 0 OFFCURVE",
"1360 58.202 OFFCURVE",
"1360 130 CURVE SMOOTH",
"1360 1150 LINE SMOOTH",
"1360 1221.8 OFFCURVE",
"1301.8 1280 OFFCURVE",
"1230 1280 CURVE SMOOTH"
);
}
);
width = 1440;
}
);
unicode = 0041;
},
{
glyphname = B;
lastChange = "2014-01-05 15:46:04 +0000";
layers = (
{
layerId = "940E2F63-624A-4C3D-A909-721782B4CF41";
name = Regular;
paths = (
{
closed = 1;
nodes = (
"210 1280 LINE SMOOTH",
"138.202 1280 OFFCURVE",
"80 1221.8 OFFCURVE",
"80 1150 CURVE SMOOTH",
"80 130 LINE SMOOTH",
"80 58.202 OFFCURVE",
"138.202 0 OFFCURVE",
"210 0 CURVE SMOOTH",
"281.798 0 OFFCURVE",
"340 58.202 OFFCURVE",
"340 130 CURVE SMOOTH",
"340 1020 LINE",
"1100 1020 LINE",
"1100 770 LINE",
"720 770 LINE SMOOTH",
"648.202 770 OFFCURVE",
"590 711.798 OFFCURVE",
"590 640 CURVE SMOOTH",
"590 568.202 OFFCURVE",
"648.202 510 OFFCURVE",
"720 510 CURVE SMOOTH",
"1100 510 LINE",
"1100 260 LINE",
"720 260 LINE SMOOTH",
"648.202 260 OFFCURVE",
"590 201.798 OFFCURVE",
"590 130 CURVE SMOOTH",
"590 58.202 OFFCURVE",
"648.202 0 OFFCURVE",
"720 0 CURVE SMOOTH",
"1230 0 LINE SMOOTH",
"1301.8 0 OFFCURVE",
"1360 58.202 OFFCURVE",
"1360 130 CURVE SMOOTH",
"1360 1150 LINE SMOOTH",
"1360 1221.8 OFFCURVE",
"1301.8 1280 OFFCURVE",
"1230 1280 CURVE SMOOTH"
);
}
);
width = 1440;
}
);
unicode = 0042;
},
{
glyphname = C;
lastChange = "2014-01-05 15:46:04 +0000";
layers = (
{
layerId = "940E2F63-624A-4C3D-A909-721782B4CF41";
name = Regular;
paths = (
{
closed = 1;
nodes = (
"210 1280 LINE SMOOTH",
"138.202 1280 OFFCURVE",
"80 1221.8 OFFCURVE",
"80 1150 CURVE SMOOTH",
"80 130 LINE SMOOTH",
"80 58.202 OFFCURVE",
"138.202 0 OFFCURVE",
"210 0 CURVE SMOOTH",
"1230 0 LINE SMOOTH",
"1301.8 0 OFFCURVE",
"1360 58.202 OFFCURVE",
"1360 130 CURVE SMOOTH",
"1360 201.798 OFFCURVE",
"1301.8 260 OFFCURVE",
"1230 260 CURVE SMOOTH",
"340 260 LINE",
"340 1020 LINE",
"1230 1020 LINE SMOOTH",
"1301.8 1020 OFFCURVE",
"1360 1078.2 OFFCURVE",
"1360 1150 CURVE SMOOTH",
"1360 1221.8 OFFCURVE",
"1301.8 1280 OFFCURVE",
"1230 1280 CURVE SMOOTH"
);
}
);
width = 1440;
}
);
unicode = 0043;
},
{
glyphname = D;
lastChange = "2014-01-05 15:46:04 +0000";
layers = (
{
layerId = "940E2F63-624A-4C3D-A909-721782B4CF41";
name = Regular;
paths = (
{
closed = 1;
nodes = (
"210 1280 LINE SMOOTH",
"138.202 1280 OFFCURVE",
"80 1221.8 OFFCURVE",
"80 1150 CURVE SMOOTH",
"80 1078.2 OFFCURVE",
"138.202 1020 OFFCURVE",
"210 1020 CURVE SMOOTH",
"1100 1020 LINE",
"1100 260 LINE",
"340 260 LINE",
"340 640 LINE SMOOTH",
"340 711.798 OFFCURVE",
"281.798 770 OFFCURVE",
"210 770 CURVE SMOOTH",
"138.202 770 OFFCURVE",
"80 711.798 OFFCURVE",
"80 640 CURVE SMOOTH",
"80 130 LINE SMOOTH",
"80 58.202 OFFCURVE",
"138.202 0 OFFCURVE",
"210 0 CURVE SMOOTH",
"1230 0 LINE SMOOTH",
"1301.8 0 OFFCURVE",
"1360 58.202 OFFCURVE",
"1360 130 CURVE SMOOTH",
"1360 1150 LINE SMOOTH",
"1360 1221.8 OFFCURVE",
"1301.8 1280 OFFCURVE",
"1230 1280 CURVE SMOOTH"
);
}
);
width = 1440;
}
);
unicode = 0044;
},
{
glyphname = E;
lastChange = "2014-01-05 15:46:04 +0000";
layers = (
{
layerId = "940E2F63-624A-4C3D-A909-721782B4CF41";
name = Regular;
paths = (
{
closed = 1;
nodes = (
"720 1280 LINE SMOOTH",
"648.202 1280 OFFCURVE",
"590 1221.8 OFFCURVE",
"590 1150 CURVE SMOOTH",
"590 1078.2 OFFCURVE",
"648.202 1020 OFFCURVE",
"720 1020 CURVE SMOOTH",
"1100 1020 LINE",
"1100 770 LINE",
"340 770 LINE",
"340 1150 LINE SMOOTH",
"340 1221.8 OFFCURVE",
"281.798 1280 OFFCURVE",
"210 1280 CURVE SMOOTH",
"138.202 1280 OFFCURVE",
"80 1221.8 OFFCURVE",
"80 1150 CURVE SMOOTH",
"80 130 LINE SMOOTH",
"80 58.202 OFFCURVE",
"138.202 0 OFFCURVE",
"210 0 CURVE SMOOTH",
"1230 0 LINE SMOOTH",
"1301.8 0 OFFCURVE",
"1360 58.202 OFFCURVE",
"1360 130 CURVE SMOOTH",
"1360 201.798 OFFCURVE",
"1301.8 260 OFFCURVE",
"1230 260 CURVE SMOOTH",
"340 260 LINE",
"340 510 LINE",
"1230 510 LINE SMOOTH",
"1301.8 510 OFFCURVE",
"1360 568.202 OFFCURVE",
"1360 640 CURVE SMOOTH",
"1360 1150 LINE SMOOTH",
"1360 1221.8 OFFCURVE",
"1301.8 1280 OFFCURVE",
"1230 1280 CURVE SMOOTH"
);
}
);
width = 1440;
}
);
unicode = 0045;
},
{
glyphname = F;
lastChange = "2014-01-05 15:46:04 +0000";
layers = (
{
layerId = "940E2F63-624A-4C3D-A909-721782B4CF41";
name = Regular;
paths = (
{
closed = 1;
nodes = (
"210 1280 LINE SMOOTH",
"138.202 1280 OFFCURVE",
"80 1221.8 OFFCURVE",
"80 1150 CURVE SMOOTH",
"80 130 LINE SMOOTH",
"80 58.202 OFFCURVE",
"138.202 0 OFFCURVE",
"210 0 CURVE SMOOTH",
"281.798 0 OFFCURVE",
"340 58.202 OFFCURVE",
"340 130 CURVE SMOOTH",
"340 510 LINE",
"1230 510 LINE SMOOTH",
"1301.8 510 OFFCURVE",
"1360 568.202 OFFCURVE",
"1360 640 CURVE SMOOTH",
"1360 711.798 OFFCURVE",
"1301.8 770 OFFCURVE",
"1230 770 CURVE SMOOTH",
"340 770 LINE",
"340 1020 LINE",
"1230 1020 LINE SMOOTH",
"1301.8 1020 OFFCURVE",
"1360 1078.2 OFFCURVE",
"1360 1150 CURVE SMOOTH",
"1360 1221.8 OFFCURVE",
"1301.8 1280 OFFCURVE",
"1230 1280 CURVE SMOOTH"
);
}
);
width = 1440;
}
);
unicode = 0046;
},
{
glyphname = H;
lastChange = "2014-01-05 15:46:04 +0000";
layers = (
{
layerId = "940E2F63-624A-4C3D-A909-721782B4CF41";
name = Regular;
paths = (
{
closed = 1;
nodes = (
"1158.2 1280 OFFCURVE",
"1100 1221.8 OFFCURVE",
"1100 1150 CURVE SMOOTH",
"1100 770 LINE",
"340 770 LINE",
"340 1150 LINE SMOOTH",
"340 1221.8 OFFCURVE",
"281.798 1280 OFFCURVE",
"210 1280 CURVE SMOOTH",
"138.202 1280 OFFCURVE",
"80 1221.8 OFFCURVE",
"80 1150 CURVE SMOOTH",
"80 130 LINE SMOOTH",
"80 58.202 OFFCURVE",
"138.202 0 OFFCURVE",
"210 0 CURVE SMOOTH",
"281.798 0 OFFCURVE",
"340 58.202 OFFCURVE",
"340 130 CURVE SMOOTH",
"340 510 LINE",
"1100 510 LINE",
"1100 130 LINE SMOOTH",
"1100 58.202 OFFCURVE",
"1158.2 0 OFFCURVE",
"1230 0 CURVE SMOOTH",
"1301.8 0 OFFCURVE",
"1360 58.202 OFFCURVE",
"1360 130 CURVE SMOOTH",
"1360 1150 LINE SMOOTH",
"1360 1221.8 OFFCURVE",
"1301.8 1280 OFFCURVE",
"1230 1280 CURVE SMOOTH"
);
}
);
width = 1440;
}
);
unicode = 0048;
},
{
glyphname = J;
lastChange = "2014-01-05 15:46:04 +0000";
layers = (
{
layerId = "940E2F63-624A-4C3D-A909-721782B4CF41";
name = Regular;
paths = (
{
closed = 1;
nodes = (
"720 1280 LINE SMOOTH",
"648.202 1280 OFFCURVE",
"590 1221.8 OFFCURVE",
"590 1150 CURVE SMOOTH",
"590 1078.2 OFFCURVE",
"648.202 1020 OFFCURVE",
"720 1020 CURVE SMOOTH",
"1100 1020 LINE",
"1100 260 LINE",
"210 260 LINE SMOOTH",
"138.202 260 OFFCURVE",
"80 201.798 OFFCURVE",
"80 130 CURVE SMOOTH",
"80 58.202 OFFCURVE",
"138.202 0 OFFCURVE",
"210 0 CURVE SMOOTH",
"1230 0 LINE SMOOTH",
"1301.8 0 OFFCURVE",
"1360 58.202 OFFCURVE",
"1360 130 CURVE SMOOTH",
"1360 1150 LINE SMOOTH",
"1360 1221.8 OFFCURVE",
"1301.8 1280 OFFCURVE",
"1230 1280 CURVE SMOOTH"
);
}
);
width = 1440;
}
);
unicode = 004A;
},
{
glyphname = K;
lastChange = "2014-01-05 15:46:04 +0000";
layers = (
{
layerId = "940E2F63-624A-4C3D-A909-721782B4CF41";
name = Regular;
paths = (
{
closed = 1;
nodes = (
"720 1280 LINE SMOOTH",
"648.202 1280 OFFCURVE",
"590 1221.8 OFFCURVE",
"590 1150 CURVE SMOOTH",
"590 770 LINE",
"340 770 LINE",
"340 1150 LINE SMOOTH",
"340 1221.8 OFFCURVE",
"281.798 1280 OFFCURVE",
"210 1280 CURVE SMOOTH",
"138.202 1280 OFFCURVE",
"80 1221.8 OFFCURVE",
"80 1150 CURVE SMOOTH",
"80 130 LINE SMOOTH",
"80 58.202 OFFCURVE",
"138.202 0 OFFCURVE",
"210 0 CURVE SMOOTH",
"281.798 0 OFFCURVE",
"340 58.202 OFFCURVE",
"340 130 CURVE SMOOTH",
"340 510 LINE",
"1100 510 LINE",
"1100 130 LINE SMOOTH",
"1100 58.202 OFFCURVE",
"1158.2 0 OFFCURVE",
"1230 0 CURVE SMOOTH",
"1301.8 0 OFFCURVE",
"1360 58.202 OFFCURVE",
"1360 130 CURVE SMOOTH",
"1360 640 LINE SMOOTH",
"1360 711.798 OFFCURVE",
"1301.8 770 OFFCURVE",
"1230 770 CURVE SMOOTH",
"850 770 LINE",
"850 1020 LINE",
"1230 1020 LINE SMOOTH",
"1301.8 1020 OFFCURVE",
"1360 1078.2 OFFCURVE",
"1360 1150 CURVE SMOOTH",
"1360 1221.8 OFFCURVE",
"1301.8 1280 OFFCURVE",
"1230 1280 CURVE SMOOTH"
);
}
);
width = 1440;
}
);
unicode = 004B;
},
{
glyphname = L;
lastChange = "2014-01-05 15:46:04 +0000";
layers = (
{
layerId = "940E2F63-624A-4C3D-A909-721782B4CF41";
name = Regular;
paths = (
{
closed = 1;
nodes = (
"138.202 1280 OFFCURVE",
"80 1221.8 OFFCURVE",
"80 1150 CURVE SMOOTH",
"80 130 LINE SMOOTH",
"80 58.202 OFFCURVE",
"138.202 0 OFFCURVE",
"210 0 CURVE SMOOTH",
"1230 0 LINE SMOOTH",
"1301.8 0 OFFCURVE",
"1360 58.202 OFFCURVE",
"1360 130 CURVE SMOOTH",
"1360 201.798 OFFCURVE",
"1301.8 260 OFFCURVE",
"1230 260 CURVE SMOOTH",
"340 260 LINE",
"340 1150 LINE SMOOTH",
"340 1221.8 OFFCURVE",
"281.798 1280 OFFCURVE",
"210 1280 CURVE SMOOTH"
);
}
);
width = 1440;
}
);
unicode = 004C;
},
{
glyphname = M;
lastChange = "2014-01-05 15:46:04 +0000";
layers = (
{
layerId = "940E2F63-624A-4C3D-A909-721782B4CF41";
name = Regular;
paths = (
{
closed = 1;
nodes = (
"210 1280 LINE SMOOTH",
"138.202 1280 OFFCURVE",
"80 1221.8 OFFCURVE",
"80 1150 CURVE SMOOTH",
"80 130 LINE SMOOTH",
"80 58.202 OFFCURVE",
"138.202 0 OFFCURVE",
"210 0 CURVE SMOOTH",
"281.798 0 OFFCURVE",
"340 58.202 OFFCURVE",
"340 130 CURVE SMOOTH",
"340 1020 LINE",
"590 1020 LINE",
"590 130 LINE SMOOTH",
"590 58.202 OFFCURVE",
"648.202 0 OFFCURVE",
"720 0 CURVE SMOOTH",
"791.798 0 OFFCURVE",
"850 58.202 OFFCURVE",
"850 130 CURVE SMOOTH",
"850 1020 LINE",
"1100 1020 LINE",
"1100 130 LINE SMOOTH",
"1100 58.202 OFFCURVE",
"1158.2 0 OFFCURVE",
"1230 0 CURVE SMOOTH",
"1301.8 0 OFFCURVE",
"1360 58.202 OFFCURVE",
"1360 130 CURVE SMOOTH",
"1360 1150 LINE SMOOTH",
"1360 1221.8 OFFCURVE",
"1301.8 1280 OFFCURVE",
"1230 1280 CURVE SMOOTH"
);
}
);
width = 1440;
}
);
unicode = 004D;
},
{
glyphname = N;
lastChange = "2014-01-05 15:46:04 +0000";
layers = (
{
layerId = "940E2F63-624A-4C3D-A909-721782B4CF41";
name = Regular;
paths = (
{
closed = 1;
nodes = (
"1158.2 1280 OFFCURVE",
"1100 1221.8 OFFCURVE",
"1100 1150 CURVE SMOOTH",
"1100 260 LINE",
"850 260 LINE",
"850 1150 LINE SMOOTH",
"850 1221.8 OFFCURVE",
"791.798 1280 OFFCURVE",
"720 1280 CURVE SMOOTH",
"210 1280 LINE SMOOTH",
"138.202 1280 OFFCURVE",
"80 1221.8 OFFCURVE",
"80 1150 CURVE SMOOTH",
"80 130 LINE SMOOTH",
"80 58.202 OFFCURVE",
"138.202 0 OFFCURVE",
"210 0 CURVE SMOOTH",
"281.798 0 OFFCURVE",
"340 58.202 OFFCURVE",
"340 130 CURVE SMOOTH",
"340 1020 LINE",
"590 1020 LINE",
"590 130 LINE SMOOTH",
"590 58.202 OFFCURVE",
"648.202 0 OFFCURVE",
"720 0 CURVE SMOOTH",
"1230 0 LINE SMOOTH",
"1301.8 0 OFFCURVE",
"1360 58.202 OFFCURVE",
"1360 130 CURVE SMOOTH",
"1360 1150 LINE SMOOTH",
"1360 1221.8 OFFCURVE",
"1301.8 1280 OFFCURVE",
"1230 1280 CURVE SMOOTH"
);
}
);
width = 1440;
}
);
unicode = 004E;
},
{
glyphname = O;
lastChange = "2014-01-05 15:46:04 +0000";
layers = (
{
layerId = "940E2F63-624A-4C3D-A909-721782B4CF41";
name = Regular;
paths = (
{
closed = 1;
nodes = (
"210 1280 LINE SMOOTH",
"138.202 1280 OFFCURVE",
"80 1221.8 OFFCURVE",
"80 1150 CURVE SMOOTH",
"80 130 LINE SMOOTH",
"80 58.202 OFFCURVE",
"138.202 0 OFFCURVE",
"210 0 CURVE SMOOTH",
"1230 0 LINE SMOOTH",
"1301.8 0 OFFCURVE",
"1360 58.202 OFFCURVE",
"1360 130 CURVE SMOOTH",
"1360 1150 LINE SMOOTH",
"1360 1221.8 OFFCURVE",
"1301.8 1280 OFFCURVE",
"1230 1280 CURVE SMOOTH"
);
},
{
closed = 1;
nodes = (
"1100 260 LINE",
"340 260 LINE",
"340 1020 LINE",
"1100 1020 LINE"
);
}
);
width = 1440;
}
);
unicode = 004F;
},
{
glyphname = P;
lastChange = "2014-01-05 15:46:04 +0000";
layers = (
{
layerId = "940E2F63-624A-4C3D-A909-721782B4CF41";
name = Regular;
paths = (
{
closed = 1;
nodes = (
"210 1280 LINE SMOOTH",
"138.202 1280 OFFCURVE",
"80 1221.8 OFFCURVE",
"80 1150 CURVE SMOOTH",
"80 130 LINE SMOOTH",
"80 58.202 OFFCURVE",
"138.202 0 OFFCURVE",
"210 0 CURVE SMOOTH",
"281.798 0 OFFCURVE",
"340 58.202 OFFCURVE",
"340 130 CURVE SMOOTH",
"340 1020 LINE",
"1100 1020 LINE",
"1100 770 LINE",
"720 770 LINE SMOOTH",
"648.202 770 OFFCURVE",
"590 711.798 OFFCURVE",
"590 640 CURVE SMOOTH",
"590 568.202 OFFCURVE",
"648.202 510 OFFCURVE",
"720 510 CURVE SMOOTH",
"1230 510 LINE SMOOTH",
"1301.8 510 OFFCURVE",
"1360 568.202 OFFCURVE",
"1360 640 CURVE SMOOTH",
"1360 1150 LINE SMOOTH",
"1360 1221.8 OFFCURVE",
"1301.8 1280 OFFCURVE",
"1230 1280 CURVE SMOOTH"
);
}
);
width = 1440;
}
);
unicode = 0050;
},
{
glyphname = Q;
lastChange = "2014-01-05 15:46:04 +0000";
layers = (
{
layerId = "940E2F63-624A-4C3D-A909-721782B4CF41";
name = Regular;
paths = (
{
closed = 1;
nodes = (
"210 1280 LINE SMOOTH",
"138.202 1280 OFFCURVE",
"80 1221.8 OFFCURVE",
"80 1150 CURVE SMOOTH",
"80 130 LINE SMOOTH",
"80 58.202 OFFCURVE",
"138.202 0 OFFCURVE",
"210 0 CURVE SMOOTH",
"1230 0 LINE SMOOTH",
"1301.8 0 OFFCURVE",
"1360 58.202 OFFCURVE",
"1360 130 CURVE SMOOTH",
"1360 1150 LINE SMOOTH",
"1360 1221.8 OFFCURVE",
"1301.8 1280 OFFCURVE",
"1230 1280 CURVE SMOOTH"
);
},
{
closed = 1;
nodes = (
"1100 260 LINE",
"850 260 LINE",
"850 640 LINE SMOOTH",
"850 711.798 OFFCURVE",
"791.798 770 OFFCURVE",
"720 770 CURVE SMOOTH",
"648.202 770 OFFCURVE",
"590 711.798 OFFCURVE",
"590 640 CURVE SMOOTH",
"590 260 LINE",
"340 260 LINE",
"340 1020 LINE",
"1100 1020 LINE"
);
}
);
width = 1440;
}
);
unicode = 0051;
},
{
glyphname = R;
lastChange = "2014-01-05 15:46:04 +0000";
layers = (
{
layerId = "940E2F63-624A-4C3D-A909-721782B4CF41";
name = Regular;
paths = (
{
closed = 1;
nodes = (
"210 1280 LINE SMOOTH",
"138.202 1280 OFFCURVE",
"80 1221.8 OFFCURVE",
"80 1150 CURVE SMOOTH",
"80 130 LINE SMOOTH",
"80 58.202 OFFCURVE",
"138.202 0 OFFCURVE",
"210 0 CURVE SMOOTH",
"281.798 0 OFFCURVE",
"340 58.202 OFFCURVE",
"340 130 CURVE SMOOTH",
"340 1020 LINE",
"1100 1020 LINE",
"1100 770 LINE",
"720 770 LINE SMOOTH",
"648.202 770 OFFCURVE",
"590 711.798 OFFCURVE",
"590 640 CURVE SMOOTH",
"590 130 LINE SMOOTH",
"590 58.202 OFFCURVE",
"648.202 0 OFFCURVE",
"720 0 CURVE SMOOTH",
"1230 0 LINE SMOOTH",
"1301.8 0 OFFCURVE",
"1360 58.202 OFFCURVE",
"1360 130 CURVE SMOOTH",
"1360 201.798 OFFCURVE",
"1301.8 260 OFFCURVE",
"1230 260 CURVE SMOOTH",
"850 260 LINE",
"850 510 LINE",
"1230 510 LINE SMOOTH",
"1301.8 510 OFFCURVE",
"1360 568.202 OFFCURVE",
"1360 640 CURVE SMOOTH",
"1360 1150 LINE SMOOTH",
"1360 1221.8 OFFCURVE",
"1301.8 1280 OFFCURVE",
"1230 1280 CURVE SMOOTH"
);
}
);
width = 1440;
}
);
unicode = 0052;
},
{
glyphname = T;
lastChange = "2014-01-05 15:46:04 +0000";
layers = (
{
layerId = "940E2F63-624A-4C3D-A909-721782B4CF41";
name = Regular;
paths = (
{
closed = 1;
nodes = (
"210 1280 LINE SMOOTH",
"138.202 1280 OFFCURVE",
"80 1221.8 OFFCURVE",
"80 1150 CURVE SMOOTH",
"80 1078.2 OFFCURVE",
"138.202 1020 OFFCURVE",
"210 1020 CURVE SMOOTH",
"590 1020 LINE",
"590 130 LINE SMOOTH",
"590 58.202 OFFCURVE",
"648.202 0 OFFCURVE",
"720 0 CURVE SMOOTH",
"791.798 0 OFFCURVE",
"850 58.202 OFFCURVE",
"850 130 CURVE SMOOTH",
"850 1020 LINE",
"1230 1020 LINE SMOOTH",
"1301.8 1020 OFFCURVE",
"1360 1078.2 OFFCURVE",
"1360 1150 CURVE SMOOTH",
"1360 1221.8 OFFCURVE",
"1301.8 1280 OFFCURVE",
"1230 1280 CURVE SMOOTH"
);
}
);
width = 1440;
}
);
unicode = 0054;
},
{
glyphname = V;
lastChange = "2014-01-05 15:46:04 +0000";
layers = (
{
layerId = "940E2F63-624A-4C3D-A909-721782B4CF41";
name = Regular;
paths = (
{
closed = 1;
nodes = (
"1158.2 1280 OFFCURVE",
"1100 1221.8 OFFCURVE",
"1100 1150 CURVE SMOOTH",
"1100 770 LINE",
"720 770 LINE SMOOTH",
"648.202 770 OFFCURVE",
"590 711.798 OFFCURVE",
"590 640 CURVE SMOOTH",
"590 260 LINE",
"340 260 LINE",
"340 1150 LINE SMOOTH",
"340 1221.8 OFFCURVE",
"281.798 1280 OFFCURVE",
"210 1280 CURVE SMOOTH",
"138.202 1280 OFFCURVE",
"80 1221.8 OFFCURVE",
"80 1150 CURVE SMOOTH",
"80 130 LINE SMOOTH",
"80 58.202 OFFCURVE",
"138.202 0 OFFCURVE",
"210 0 CURVE SMOOTH",
"720 0 LINE SMOOTH",
"791.798 0 OFFCURVE",
"850 58.202 OFFCURVE",
"850 130 CURVE SMOOTH",
"850 510 LINE",
"1230 510 LINE SMOOTH",
"1301.8 510 OFFCURVE",
"1360 568.202 OFFCURVE",
"1360 640 CURVE SMOOTH",
"1360 1150 LINE SMOOTH",
"1360 1221.8 OFFCURVE",
"1301.8 1280 OFFCURVE",
"1230 1280 CURVE SMOOTH"
);
}
);
width = 1440;
}
);
unicode = 0056;
},
{
glyphname = X;
lastChange = "2014-01-05 15:46:04 +0000";
layers = (
{
layerId = "940E2F63-624A-4C3D-A909-721782B4CF41";
name = Regular;
paths = (
{
closed = 1;
nodes = (
"210 1280 LINE SMOOTH",
"138.202 1280 OFFCURVE",
"80 1221.8 OFFCURVE",
"80 1150 CURVE SMOOTH",
"80 640 LINE SMOOTH",
"80 568.202 OFFCURVE",
"138.202 510 OFFCURVE",
"210 510 CURVE SMOOTH",
"281.798 510 OFFCURVE",
"340 568.202 OFFCURVE",
"340 640 CURVE SMOOTH",
"340 1020 LINE",
"590 1020 LINE",
"590 260 LINE",
"210 260 LINE SMOOTH",
"138.202 260 OFFCURVE",
"80 201.798 OFFCURVE",
"80 130 CURVE SMOOTH",
"80 58.202 OFFCURVE",
"138.202 0 OFFCURVE",
"210 0 CURVE SMOOTH",
"1230 0 LINE SMOOTH",
"1301.8 0 OFFCURVE",
"1360 58.202 OFFCURVE",
"1360 130 CURVE SMOOTH",
"1360 640 LINE SMOOTH",
"1360 711.798 OFFCURVE",
"1301.8 770 OFFCURVE",
"1230 770 CURVE SMOOTH",
"1158.2 770 OFFCURVE",
"1100 711.798 OFFCURVE",
"1100 640 CURVE SMOOTH",
"1100 260 LINE",
"850 260 LINE",
"850 1020 LINE",
"1230 1020 LINE SMOOTH",
"1301.8 1020 OFFCURVE",
"1360 1078.2 OFFCURVE",
"1360 1150 CURVE SMOOTH",
"1360 1221.8 OFFCURVE",
"1301.8 1280 OFFCURVE",
"1230 1280 CURVE SMOOTH"
);
}
);
width = 1440;
}
);
unicode = 0058;
},
{
glyphname = Y;
lastChange = "2014-01-05 15:46:04 +0000";
layers = (
{
layerId = "940E2F63-624A-4C3D-A909-721782B4CF41";
name = Regular;
paths = (
{
closed = 1;
nodes = (
"1158.2 1280 OFFCURVE",
"1100 1221.8 OFFCURVE",
"1100 1150 CURVE SMOOTH",
"1100 770 LINE",
"340 770 LINE",
"340 1150 LINE SMOOTH",
"340 1221.8 OFFCURVE",
"281.798 1280 OFFCURVE",
"210 1280 CURVE SMOOTH",
"138.202 1280 OFFCURVE",
"80 1221.8 OFFCURVE",
"80 1150 CURVE SMOOTH",
"80 640 LINE SMOOTH",
"80 568.202 OFFCURVE",
"138.202 510 OFFCURVE",
"210 510 CURVE SMOOTH",
"1100 510 LINE",
"1100 260 LINE",
"210 260 LINE SMOOTH",
"138.202 260 OFFCURVE",
"80 201.798 OFFCURVE",
"80 130 CURVE SMOOTH",
"80 58.202 OFFCURVE",
"138.202 0 OFFCURVE",
"210 0 CURVE SMOOTH",
"1230 0 LINE SMOOTH",
"1301.8 0 OFFCURVE",
"1360 58.202 OFFCURVE",
"1360 130 CURVE SMOOTH",
"1360 1150 LINE SMOOTH",
"1360 1221.8 OFFCURVE",
"1301.8 1280 OFFCURVE",
"1230 1280 CURVE SMOOTH"
);
}
);
width = 1440;
}
);
unicode = 0059;
},
{
glyphname = zero;
lastChange = "2014-01-05 15:46:04 +0000";
layers = (
{
components = (
{
name = O;
transform = "{1, 0, 0, 1, 0, 0}";
}
);
layerId = "940E2F63-624A-4C3D-A909-721782B4CF41";
name = Regular;
paths = (
{
closed = 1;
nodes = (
"648.202 770 OFFCURVE",
"590 711.798 OFFCURVE",
"590 640 CURVE SMOOTH",
"590 568.202 OFFCURVE",
"648.202 510 OFFCURVE",
"720 510 CURVE SMOOTH",
"791.798 510 OFFCURVE",
"850 568.202 OFFCURVE",
"850 640 CURVE SMOOTH",
"850 711.798 OFFCURVE",
"791.798 770 OFFCURVE",
"720 770 CURVE SMOOTH"
);
}
);
width = 1440;
}
);
unicode = 0030;
},
{
glyphname = one;
lastChange = "2014-01-05 15:46:04 +0000";
layers = (
{
layerId = "940E2F63-624A-4C3D-A909-721782B4CF41";
name = Regular;
paths = (
{
closed = 1;
nodes = (
"210 1280 LINE SMOOTH",
"138.202 1280 OFFCURVE",
"80 1221.8 OFFCURVE",
"80 1150 CURVE SMOOTH",
"80 1078.2 OFFCURVE",
"138.202 1020 OFFCURVE",
"210 1020 CURVE SMOOTH",
"590 1020 LINE",
"590 260 LINE",
"210 260 LINE SMOOTH",
"138.202 260 OFFCURVE",
"80 201.798 OFFCURVE",
"80 130 CURVE SMOOTH",
"80 58.202 OFFCURVE",
"138.202 0 OFFCURVE",
"210 0 CURVE SMOOTH",
"1230 0 LINE SMOOTH",
"1301.8 0 OFFCURVE",
"1360 58.202 OFFCURVE",
"1360 130 CURVE SMOOTH",
"1360 201.798 OFFCURVE",
"1301.8 260 OFFCURVE",
"1230 260 CURVE SMOOTH",
"850 260 LINE",
"850 1150 LINE SMOOTH",
"850 1221.8 OFFCURVE",
"791.798 1280 OFFCURVE",
"720 1280 CURVE SMOOTH"
);
}
);
width = 1440;
}
);
unicode = 0031;
},
{
glyphname = seven;
lastChange = "2014-01-05 15:46:04 +0000";
layers = (
{
layerId = "940E2F63-624A-4C3D-A909-721782B4CF41";
name = Regular;
paths = (
{
closed = 1;
nodes = (
"210 1280 LINE SMOOTH",
"138.202 1280 OFFCURVE",
"80 1221.8 OFFCURVE",
"80 1150 CURVE SMOOTH",
"80 1078.2 OFFCURVE",
"138.202 1020 OFFCURVE",
"210 1020 CURVE SMOOTH",
"1100 1020 LINE",
"1100 770 LINE",
"720 770 LINE SMOOTH",
"648.202 770 OFFCURVE",
"590 711.798 OFFCURVE",
"590 640 CURVE SMOOTH",
"590 130 LINE SMOOTH",
"590 58.202 OFFCURVE",
"648.202 0 OFFCURVE",
"720 0 CURVE SMOOTH",
"791.798 0 OFFCURVE",
"850 58.202 OFFCURVE",
"850 130 CURVE SMOOTH",
"850 510 LINE",
"1230 510 LINE SMOOTH",
"1301.8 510 OFFCURVE",
"1360 568.202 OFFCURVE",
"1360 640 CURVE SMOOTH",
"1360 1150 LINE SMOOTH",
"1360 1221.8 OFFCURVE",
"1301.8 1280 OFFCURVE",
"1230 1280 CURVE SMOOTH"
);
}
);
width = 1440;
}
);
unicode = 0037;
},
{
glyphname = eight;
lastChange = "2014-01-05 15:46:04 +0000";
layers = (
{
layerId = "940E2F63-624A-4C3D-A909-721782B4CF41";
name = Regular;
paths = (
{
closed = 1;
nodes = (
"210 1280 LINE SMOOTH",
"138.202 1280 OFFCURVE",
"80 1221.8 OFFCURVE",
"80 1150 CURVE SMOOTH",
"80 130 LINE SMOOTH",
"80 58.202 OFFCURVE",
"138.202 0 OFFCURVE",
"210 0 CURVE SMOOTH",
"1230 0 LINE SMOOTH",
"1301.8 0 OFFCURVE",
"1360 58.202 OFFCURVE",
"1360 130 CURVE SMOOTH",
"1360 1150 LINE SMOOTH",
"1360 1221.8 OFFCURVE",
"1301.8 1280 OFFCURVE",
"1230 1280 CURVE SMOOTH"
);
},
{
closed = 1;
nodes = (
"1100 260 LINE",
"340 260 LINE",
"340 510 LINE",
"1100 510 LINE"
);
},
{
closed = 1;
nodes = (
"1100 770 LINE",
"340 770 LINE",
"340 1020 LINE",
"1100 1020 LINE"
);
}
);
width = 1440;
}
);
unicode = 0038;
},
{
glyphname = asterisk;
lastChange = "2014-01-05 15:46:04 +0000";
layers = (
{
components = (
{
name = plus;
transform = "{1, 0, 0, 1, 0, 0}";
}
);
layerId = "940E2F63-624A-4C3D-A909-721782B4CF41";
name = Regular;
paths = (
{
closed = 1;
nodes = (
"1158.2 1280 OFFCURVE",
"1100 1221.8 OFFCURVE",
"1100 1150 CURVE SMOOTH",
"1100 1078.2 OFFCURVE",
"1158.2 1020 OFFCURVE",
"1230 1020 CURVE SMOOTH",
"1301.8 1020 OFFCURVE",
"1360 1078.2 OFFCURVE",
"1360 1150 CURVE SMOOTH",
"1360 1221.8 OFFCURVE",
"1301.8 1280 OFFCURVE",
"1230 1280 CURVE SMOOTH"
);
},
{
closed = 1;
nodes = (
"138.202 260 OFFCURVE",
"80 201.8 OFFCURVE",
"80 130 CURVE SMOOTH",
"80 58.2 OFFCURVE",
"138.202 0 OFFCURVE",
"210 0 CURVE SMOOTH",
"281.798 0 OFFCURVE",
"340 58.2 OFFCURVE",
"340 130 CURVE SMOOTH",
"340 201.8 OFFCURVE",
"281.798 260 OFFCURVE",
"210 260 CURVE SMOOTH"
);
},
{
closed = 1;
nodes = (
"138.202 1280 OFFCURVE",
"80 1221.8 OFFCURVE",
"80 1150 CURVE SMOOTH",
"80 1078.2 OFFCURVE",
"138.202 1020 OFFCURVE",
"210 1020 CURVE SMOOTH",
"281.798 1020 OFFCURVE",
"340 1078.2 OFFCURVE",
"340 1150 CURVE SMOOTH",
"340 1221.8 OFFCURVE",
"281.798 1280 OFFCURVE",
"210 1280 CURVE SMOOTH"
);
},
{
closed = 1;
nodes = (
"1158.2 260 OFFCURVE",
"1100 201.8 OFFCURVE",
"1100 130 CURVE SMOOTH",
"1100 58.2 OFFCURVE",
"1158.2 0 OFFCURVE",
"1230 0 CURVE SMOOTH",
"1301.8 0 OFFCURVE",
"1360 58.2 OFFCURVE",
"1360 130 CURVE SMOOTH",
"1360 201.8 OFFCURVE",
"1301.8 260 OFFCURVE",
"1230 260 CURVE SMOOTH"
);
}
);
width = 1440;
}
);
unicode = 002A;
},
{
glyphname = backslash;
lastChange = "2014-01-05 15:46:04 +0000";
layers = (
{
layerId = "940E2F63-624A-4C3D-A909-721782B4CF41";
name = Regular;
paths = (
{
closed = 1;
nodes = (
"1158.2 1280 OFFCURVE",
"1100 1221.8 OFFCURVE",
"1100 1150 CURVE SMOOTH",
"1100 130 LINE SMOOTH",
"1100 58.2 OFFCURVE",
"1158.2 0 OFFCURVE",
"1230 0 CURVE SMOOTH",
"1301.8 0 OFFCURVE",
"1360 58.2 OFFCURVE",
"1360 130 CURVE SMOOTH",
"1360 1150 LINE SMOOTH",
"1360 1221.8 OFFCURVE",
"1301.8 1280 OFFCURVE",
"1230 1280 CURVE SMOOTH"
);
},
{
closed = 1;
nodes = (
"138.202 1280 OFFCURVE",
"80 1221.8 OFFCURVE",
"80 1150 CURVE SMOOTH",
"80 130 LINE SMOOTH",
"80 58.2 OFFCURVE",
"138.202 0 OFFCURVE",
"210 0 CURVE SMOOTH",
"281.798 0 OFFCURVE",
"340 58.2 OFFCURVE",
"340 130 CURVE SMOOTH",
"340 1150 LINE SMOOTH",
"340 1221.8 OFFCURVE",
"281.798 1280 OFFCURVE",
"210 1280 CURVE SMOOTH"
);
},
{
closed = 1;
nodes = (
"648.202 1280 OFFCURVE",
"590 1221.8 OFFCURVE",
"590 1150 CURVE SMOOTH",
"590 130 LINE SMOOTH",
"590 58.202 OFFCURVE",
"648.202 0 OFFCURVE",
"720 0 CURVE SMOOTH",
"791.798 0 OFFCURVE",
"850 58.202 OFFCURVE",
"850 130 CURVE SMOOTH",
"850 1150 LINE SMOOTH",
"850 1221.8 OFFCURVE",
"791.798 1280 OFFCURVE",
"720 1280 CURVE SMOOTH"
);
}
);
width = 1440;
}
);
unicode = 005C;
},
{
glyphname = comma;
lastChange = "2014-01-05 15:46:04 +0000";
layers = (
{
layerId = "940E2F63-624A-4C3D-A909-721782B4CF41";
name = Regular;
paths = (
{
closed = 1;
nodes = (
"210 1280 LINE SMOOTH",
"138.202 1280 OFFCURVE",
"80 1221.8 OFFCURVE",
"80 1150 CURVE SMOOTH",
"80 130 LINE SMOOTH",
"80 58.202 OFFCURVE",
"138.202 0 OFFCURVE",
"210 0 CURVE SMOOTH",
"1230 0 LINE SMOOTH",
"1301.8 0 OFFCURVE",
"1360 58.202 OFFCURVE",
"1360 130 CURVE SMOOTH",
"1360 1150 LINE SMOOTH",
"1360 1221.8 OFFCURVE",
"1301.8 1280 OFFCURVE",
"1230 1280 CURVE SMOOTH"
);
}
);
width = 1440;
}
);
unicode = 002C;
},
{
glyphname = ellipsis;
lastChange = "2014-01-05 15:46:04 +0000";
layers = (
{
layerId = "940E2F63-624A-4C3D-A909-721782B4CF41";
name = Regular;
paths = (
{
closed = 1;
nodes = (
"210 1280 LINE SMOOTH",
"138.2 1280 OFFCURVE",
"80 1221.8 OFFCURVE",
"80 1150 CURVE SMOOTH",
"80 1078.2 OFFCURVE",
"138.2 1020 OFFCURVE",
"210 1020 CURVE SMOOTH",
"1230 1020 LINE SMOOTH",
"1301.8 1020 OFFCURVE",
"1360 1078.2 OFFCURVE",
"1360 1150 CURVE SMOOTH",
"1360 1221.8 OFFCURVE",
"1301.8 1280 OFFCURVE",
"1230 1280 CURVE SMOOTH"
);
},
{
closed = 1;
nodes = (
"138.202 260 OFFCURVE",
"80 201.798 OFFCURVE",
"80 130 CURVE SMOOTH",
"80 58.2023 OFFCURVE",
"138.202 0 OFFCURVE",
"210 0 CURVE SMOOTH",
"281.798 0 OFFCURVE",
"340 58.2023 OFFCURVE",
"340 130 CURVE SMOOTH",
"340 201.798 OFFCURVE",
"281.798 260 OFFCURVE",
"210 260 CURVE SMOOTH"
);
},
{
closed = 1;
nodes = (
"648.202 260 OFFCURVE",
"590 201.798 OFFCURVE",
"590 130 CURVE SMOOTH",
"590 58.2023 OFFCURVE",
"648.202 0 OFFCURVE",
"720 0 CURVE SMOOTH",
"791.798 0 OFFCURVE",
"850 58.2023 OFFCURVE",
"850 130 CURVE SMOOTH",
"850 201.798 OFFCURVE",
"791.798 260 OFFCURVE",
"720 260 CURVE SMOOTH"
);
},
{
closed = 1;
nodes = (
"210 770 LINE SMOOTH",
"138.202 770 OFFCURVE",
"80 711.798 OFFCURVE",
"80 640 CURVE SMOOTH",
"80 568.202 OFFCURVE",
"138.202 510 OFFCURVE",
"210 510 CURVE SMOOTH",
"1230 510 LINE SMOOTH",
"1301.8 510 OFFCURVE",
"1360 568.202 OFFCURVE",
"1360 640 CURVE SMOOTH",
"1360 711.798 OFFCURVE",
"1301.8 770 OFFCURVE",
"1230 770 CURVE SMOOTH"
);
},
{
closed = 1;
nodes = (
"1158.2 260 OFFCURVE",
"1100 201.798 OFFCURVE",
"1100 130 CURVE SMOOTH",
"1100 58.2023 OFFCURVE",
"1158.2 0 OFFCURVE",
"1230 0 CURVE SMOOTH",
"1301.8 0 OFFCURVE",
"1360 58.2023 OFFCURVE",
"1360 130 CURVE SMOOTH",
"1360 201.798 OFFCURVE",
"1301.8 260 OFFCURVE",
"1230 260 CURVE SMOOTH"
);
}
);
width = 1440;
}
);
unicode = 2026;
},
{
glyphname = exclam;
lastChange = "2014-01-05 15:46:04 +0000";
layers = (
{
layerId = "940E2F63-624A-4C3D-A909-721782B4CF41";
name = Regular;
paths = (
{
closed = 1;
nodes = (
"1158.2 1280 OFFCURVE",
"1100 1221.8 OFFCURVE",
"1100 1150 CURVE SMOOTH",
"1100 640 LINE SMOOTH",
"1100 568.202 OFFCURVE",
"1158.2 510 OFFCURVE",
"1230 510 CURVE SMOOTH",
"1301.8 510 OFFCURVE",
"1360 568.202 OFFCURVE",
"1360 640 CURVE SMOOTH",
"1360 1150 LINE SMOOTH",
"1360 1221.8 OFFCURVE",
"1301.8 1280 OFFCURVE",
"1230 1280 CURVE SMOOTH"
);
},
{
closed = 1;
nodes = (
"138.202 260 OFFCURVE",
"80 201.798 OFFCURVE",
"80 130 CURVE SMOOTH",
"80 58.202 OFFCURVE",
"138.202 0 OFFCURVE",
"210 0 CURVE SMOOTH",
"281.798 0 OFFCURVE",
"340 58.202 OFFCURVE",
"340 130 CURVE SMOOTH",
"340 201.798 OFFCURVE",
"281.798 260 OFFCURVE",
"210 260 CURVE SMOOTH"
);
},
{
closed = 1;
nodes = (
"648.202 260 OFFCURVE",
"590 201.798 OFFCURVE",
"590 130 CURVE SMOOTH",
"590 58.202 OFFCURVE",
"648.202 0 OFFCURVE",
"720 0 CURVE SMOOTH",
"791.798 0 OFFCURVE",
"850 58.202 OFFCURVE",
"850 130 CURVE SMOOTH",
"850 201.798 OFFCURVE",
"791.798 260 OFFCURVE",
"720 260 CURVE SMOOTH"
);
},
{
closed = 1;
nodes = (
"138.202 1280 OFFCURVE",
"80 1221.8 OFFCURVE",
"80 1150 CURVE SMOOTH",
"80 640 LINE SMOOTH",
"80 568.202 OFFCURVE",
"138.202 510 OFFCURVE",
"210 510 CURVE SMOOTH",
"281.798 510 OFFCURVE",
"340 568.202 OFFCURVE",
"340 640 CURVE SMOOTH",
"340 1150 LINE SMOOTH",
"340 1221.8 OFFCURVE",
"281.798 1280 OFFCURVE",
"210 1280 CURVE SMOOTH"
);
},
{
closed = 1;
nodes = (
"1158.2 260 OFFCURVE",
"1100 201.798 OFFCURVE",
"1100 130 CURVE SMOOTH",
"1100 58.202 OFFCURVE",
"1158.2 0 OFFCURVE",
"1230 0 CURVE SMOOTH",
"1301.8 0 OFFCURVE",
"1360 58.202 OFFCURVE",
"1360 130 CURVE SMOOTH",
"1360 201.798 OFFCURVE",
"1301.8 260 OFFCURVE",
"1230 260 CURVE SMOOTH"
);
},
{
closed = 1;
nodes = (
"648.202 1280 OFFCURVE",
"590 1221.8 OFFCURVE",
"590 1150 CURVE SMOOTH",
"590 640 LINE SMOOTH",
"590 568.202 OFFCURVE",
"648.202 510 OFFCURVE",
"720 510 CURVE SMOOTH",
"791.798 510 OFFCURVE",
"850 568.202 OFFCURVE",
"850 640 CURVE SMOOTH",
"850 1150 LINE SMOOTH",
"850 1221.8 OFFCURVE",
"791.798 1280 OFFCURVE",
"720 1280 CURVE SMOOTH"
);
}
);
width = 1440;
}
);
unicode = 0021;
},
{
color = 1;
glyphname = numbersign;
lastChange = "2014-01-05 15:46:04 +0000";
layers = (
{
layerId = "940E2F63-624A-4C3D-A909-721782B4CF41";
name = Regular;
paths = (
{
closed = 1;
nodes = (
"210 1280 LINE SMOOTH",
"138.202 1280 OFFCURVE",
"80 1221.8 OFFCURVE",
"80 1150 CURVE SMOOTH",
"80 130 LINE SMOOTH",
"80 58.202 OFFCURVE",
"138.202 0 OFFCURVE",
"210 0 CURVE SMOOTH",
"1230 0 LINE SMOOTH",
"1301.8 0 OFFCURVE",
"1360 58.202 OFFCURVE",
"1360 130 CURVE SMOOTH",
"1360 1150 LINE SMOOTH",
"1360 1221.8 OFFCURVE",
"1301.8 1280 OFFCURVE",
"1230 1280 CURVE SMOOTH"
);
},
{
closed = 1;
nodes = (
"590 260 LINE",
"340 260 LINE",
"340 510 LINE",
"590 510 LINE"
);
},
{
closed = 1;
nodes = (
"590 770 LINE",
"340 770 LINE",
"340 1020 LINE",
"590 1020 LINE"
);
},
{
closed = 1;
nodes = (
"1100 260 LINE",
"850 260 LINE",
"850 510 LINE",
"1100 510 LINE"
);
},
{
closed = 1;
nodes = (
"1100 770 LINE",
"850 770 LINE",
"850 1020 LINE",
"1100 1020 LINE"
);
}
);
width = 1440;
}
);
unicode = 0023;
},
{
glyphname = question;
lastChange = "2014-01-05 15:46:04 +0000";
layers = (
{
layerId = "940E2F63-624A-4C3D-A909-721782B4CF41";
name = Regular;
paths = (
{
closed = 1;
nodes = (
"210 1280 LINE SMOOTH",
"138.202 1280 OFFCURVE",
"80 1221.8 OFFCURVE",
"80 1150 CURVE SMOOTH",
"80 1078.2 OFFCURVE",
"138.202 1020 OFFCURVE",
"210 1020 CURVE SMOOTH",
"1100 1020 LINE",
"1100 770 LINE",
"720 770 LINE SMOOTH",
"648.202 770 OFFCURVE",
"590 711.798 OFFCURVE",
"590 640 CURVE SMOOTH",
"590 568.202 OFFCURVE",
"648.202 510 OFFCURVE",
"720 510 CURVE SMOOTH",
"1230 510 LINE SMOOTH",
"1301.8 510 OFFCURVE",
"1360 568.202 OFFCURVE",
"1360 640 CURVE SMOOTH",
"1360 1150 LINE SMOOTH",
"1360 1221.8 OFFCURVE",
"1301.8 1280 OFFCURVE",
"1230 1280 CURVE SMOOTH"
);
},
{
closed = 1;
nodes = (
"648.202 260 OFFCURVE",
"590 201.798 OFFCURVE",
"590 130 CURVE SMOOTH",
"590 58.2023 OFFCURVE",
"648.202 0 OFFCURVE",
"720 0 CURVE SMOOTH",
"791.798 0 OFFCURVE",
"850 58.2023 OFFCURVE",
"850 130 CURVE SMOOTH",
"850 201.798 OFFCURVE",
"791.798 260 OFFCURVE",
"720 260 CURVE SMOOTH"
);
}
);
width = 1440;
}
);
unicode = 003F;
},
{
glyphname = braceleft;
lastChange = "2014-01-05 15:46:04 +0000";
layers = (
{
layerId = "940E2F63-624A-4C3D-A909-721782B4CF41";
name = Regular;
paths = (
{
closed = 1;
nodes = (
"720 1280 LINE SMOOTH",
"648.202 1280 OFFCURVE",
"590 1221.8 OFFCURVE",
"590 1150 CURVE SMOOTH",
"590 770 LINE",
"210 770 LINE SMOOTH",
"138.202 770 OFFCURVE",
"80 711.798 OFFCURVE",
"80 640 CURVE SMOOTH",
"80 568.202 OFFCURVE",
"138.202 510 OFFCURVE",
"210 510 CURVE SMOOTH",
"590 510 LINE",
"590 130 LINE SMOOTH",
"590 58.202 OFFCURVE",
"648.202 0 OFFCURVE",
"720 0 CURVE SMOOTH",
"1230 0 LINE SMOOTH",
"1301.8 0 OFFCURVE",
"1360 58.202 OFFCURVE",
"1360 130 CURVE SMOOTH",
"1360 201.798 OFFCURVE",
"1301.8 260 OFFCURVE",
"1230 260 CURVE SMOOTH",
"850 260 LINE",
"850 1020 LINE",
"1230 1020 LINE SMOOTH",
"1301.8 1020 OFFCURVE",
"1360 1078.2 OFFCURVE",
"1360 1150 CURVE SMOOTH",
"1360 1221.8 OFFCURVE",
"1301.8 1280 OFFCURVE",
"1230 1280 CURVE SMOOTH"
);
}
);
width = 1440;
}
);
unicode = 007B;
},
{
color = 0;
glyphname = dollar;
lastChange = "2014-01-05 15:46:04 +0000";
layers = (
{
components = (
{
name = S;
transform = "{1, 0, 0, 1, 0, 0}";
}
);
layerId = "940E2F63-624A-4C3D-A909-721782B4CF41";
name = Regular;
paths = (
{
closed = 1;
nodes = (
"590 1280 LINE",
"590 0 LINE",
"850 0 LINE",
"850 1280 LINE"
);
}
);
width = 1440;
}
);
unicode = 0024;
},
{
color = 0;
glyphname = euro;
lastChange = "2014-01-05 15:46:04 +0000";
layers = (
{
components = (
{
name = braceleft;
transform = "{1, 0, 0, 1, 0, 0}";
}
);
layerId = "940E2F63-624A-4C3D-A909-721782B4CF41";
name = Regular;
paths = (
{
closed = 1;
nodes = (
"673 770 LINE",
"673 510 LINE",
"1230 510 LINE SMOOTH",
"1301.8 510 OFFCURVE",
"1360 568.202 OFFCURVE",
"1360 640 CURVE SMOOTH",
"1360 711.798 OFFCURVE",
"1301.8 770 OFFCURVE",
"1230 770 CURVE SMOOTH"
);
}
);
width = 1440;
}
);
unicode = 20AC;
},
{
glyphname = divide;
lastChange = "2014-01-05 15:46:04 +0000";
layers = (
{
layerId = "940E2F63-624A-4C3D-A909-721782B4CF41";
name = Regular;
paths = (
{
closed = 1;
nodes = (
"210 770 LINE SMOOTH",
"138.202 770 OFFCURVE",
"80 711.798 OFFCURVE",
"80 640 CURVE SMOOTH",
"80 568.202 OFFCURVE",
"138.202 510 OFFCURVE",
"210 510 CURVE SMOOTH",
"1230 510 LINE SMOOTH",
"1301.8 510 OFFCURVE",
"1360 568.202 OFFCURVE",
"1360 640 CURVE SMOOTH",
"1360 711.798 OFFCURVE",
"1301.8 770 OFFCURVE",
"1230 770 CURVE SMOOTH"
);
},
{
closed = 1;
nodes = (
"648.202 260 OFFCURVE",
"590 201.798 OFFCURVE",
"590 130 CURVE SMOOTH",
"590 58.2023 OFFCURVE",
"648.202 0 OFFCURVE",
"720 0 CURVE SMOOTH",
"791.798 0 OFFCURVE",
"850 58.2023 OFFCURVE",
"850 130 CURVE SMOOTH",
"850 201.798 OFFCURVE",
"791.798 260 OFFCURVE",
"720 260 CURVE SMOOTH"
);
},
{
closed = 1;
nodes = (
"648.202 1280 OFFCURVE",
"590 1221.8 OFFCURVE",
"590 1150 CURVE SMOOTH",
"590 1078.2 OFFCURVE",
"648.202 1020 OFFCURVE",
"720 1020 CURVE SMOOTH",
"791.798 1020 OFFCURVE",
"850 1078.2 OFFCURVE",
"850 1150 CURVE SMOOTH",
"850 1221.8 OFFCURVE",
"791.798 1280 OFFCURVE",
"720 1280 CURVE SMOOTH"
);
}
);
width = 1440;
}
);
unicode = 00F7;
},
{
color = 0;
glyphname = percent;
lastChange = "2014-01-05 15:46:04 +0000";
layers = (
{
layerId = "940E2F63-624A-4C3D-A909-721782B4CF41";
name = Regular;
paths = (
{
closed = 1;
nodes = (
"1158.2 1280 OFFCURVE",
"1100 1221.8 OFFCURVE",
"1100 1150 CURVE SMOOTH",
"1100 770 LINE",
"210 770 LINE SMOOTH",
"138.202 770 OFFCURVE",
"80 711.798 OFFCURVE",
"80 640 CURVE SMOOTH",
"80 130 LINE SMOOTH",
"80 58.202 OFFCURVE",
"138.202 0 OFFCURVE",
"210 0 CURVE SMOOTH",
"281.798 0 OFFCURVE",
"340 58.202 OFFCURVE",
"340 130 CURVE SMOOTH",
"340 510 LINE",
"1230 510 LINE SMOOTH",
"1301.8 510 OFFCURVE",
"1360 568.202 OFFCURVE",
"1360 640 CURVE SMOOTH",
"1360 1150 LINE SMOOTH",
"1360 1221.8 OFFCURVE",
"1301.8 1280 OFFCURVE",
"1230 1280 CURVE SMOOTH"
);
},
{
closed = 1;
nodes = (
"720 260 LINE SMOOTH",
"648.202 260 OFFCURVE",
"590 201.8 OFFCURVE",
"590 130 CURVE SMOOTH",
"590 58.2 OFFCURVE",
"648.202 0 OFFCURVE",
"720 0 CURVE SMOOTH",
"1230 0 LINE SMOOTH",
"1301.8 0 OFFCURVE",
"1360 58.2 OFFCURVE",
"1360 130 CURVE SMOOTH",
"1360 201.8 OFFCURVE",
"1301.8 260 OFFCURVE",
"1230 260 CURVE SMOOTH"
);
},
{
closed = 1;
nodes = (
"210 1280 LINE SMOOTH",
"138.202 1280 OFFCURVE",
"80 1221.8 OFFCURVE",
"80 1150 CURVE SMOOTH",
"80 1078.2 OFFCURVE",
"138.202 1020 OFFCURVE",
"210 1020 CURVE SMOOTH",
"720 1020 LINE SMOOTH",
"791.798 1020 OFFCURVE",
"850 1078.2 OFFCURVE",
"850 1150 CURVE SMOOTH",
"850 1221.8 OFFCURVE",
"791.798 1280 OFFCURVE",
"720 1280 CURVE SMOOTH"
);
}
);
width = 1440;
}
);
unicode = 0025;
},
{
glyphname = plus;
lastChange = "2014-01-05 15:46:04 +0000";
layers = (
{
layerId = "940E2F63-624A-4C3D-A909-721782B4CF41";
name = Regular;
paths = (
{
closed = 1;
nodes = (
"648.202 1280 OFFCURVE",
"590 1221.8 OFFCURVE",
"590 1150 CURVE SMOOTH",
"590 770 LINE",
"210 770 LINE SMOOTH",
"138.202 770 OFFCURVE",
"80 711.798 OFFCURVE",
"80 640 CURVE SMOOTH",
"80 568.202 OFFCURVE",
"138.202 510 OFFCURVE",
"210 510 CURVE SMOOTH",
"590 510 LINE",
"590 130 LINE SMOOTH",
"590 58.2 OFFCURVE",
"648.202 0 OFFCURVE",
"720 0 CURVE SMOOTH",
"791.798 0 OFFCURVE",
"850 58.2 OFFCURVE",
"850 130 CURVE SMOOTH",
"850 510 LINE",
"1230 510 LINE SMOOTH",
"1301.8 510 OFFCURVE",
"1360 568.202 OFFCURVE",
"1360 640 CURVE SMOOTH",
"1360 711.798 OFFCURVE",
"1301.8 770 OFFCURVE",
"1230 770 CURVE SMOOTH",
"850 770 LINE",
"850 1150 LINE SMOOTH",
"850 1221.8 OFFCURVE",
"791.798 1280 OFFCURVE",
"720 1280 CURVE SMOOTH"
);
}
);
width = 1440;
}
);
unicode = 002B;
},
{
glyphname = ampersand;
lastChange = "2014-01-05 15:46:04 +0000";
layers = (
{
layerId = "940E2F63-624A-4C3D-A909-721782B4CF41";
name = Regular;
paths = (
{
closed = 1;
nodes = (
"720 1280 LINE SMOOTH",
"648.202 1280 OFFCURVE",
"590 1221.8 OFFCURVE",
"590 1150 CURVE SMOOTH",
"590 770 LINE",
"210 770 LINE SMOOTH",
"138.202 770 OFFCURVE",
"80 711.798 OFFCURVE",
"80 640 CURVE SMOOTH",
"80 130 LINE SMOOTH",
"80 58.202 OFFCURVE",
"138.202 0 OFFCURVE",
"210 0 CURVE SMOOTH",
"1230 0 LINE SMOOTH",
"1301.8 0 OFFCURVE",
"1360 58.202 OFFCURVE",
"1360 130 CURVE SMOOTH",
"1360 201.798 OFFCURVE",
"1301.8 260 OFFCURVE",
"1230 260 CURVE SMOOTH",
"340 260 LINE",
"340 510 LINE",
"1230 510 LINE SMOOTH",
"1301.8 510 OFFCURVE",
"1360 568.202 OFFCURVE",
"1360 640 CURVE SMOOTH",
"1360 1150 LINE SMOOTH",
"1360 1221.8 OFFCURVE",
"1301.8 1280 OFFCURVE",
"1230 1280 CURVE SMOOTH"
);
},
{
closed = 1;
nodes = (
"1100 770 LINE",
"850 770 LINE",
"850 1020 LINE",
"1100 1020 LINE"
);
}
);
width = 1440;
}
);
unicode = 0026;
},
{
glyphname = degree;
lastChange = "2014-01-05 15:46:04 +0000";
layers = (
{
layerId = "940E2F63-624A-4C3D-A909-721782B4CF41";
name = Regular;
paths = (
{
closed = 1;
nodes = (
"210 1280 LINE SMOOTH",
"138.202 1280 OFFCURVE",
"80 1221.8 OFFCURVE",
"80 1150 CURVE SMOOTH",
"80 640 LINE SMOOTH",
"80 568.202 OFFCURVE",
"138.202 510 OFFCURVE",
"210 510 CURVE SMOOTH",
"720 510 LINE SMOOTH",
"791.798 510 OFFCURVE",
"850 568.202 OFFCURVE",
"850 640 CURVE SMOOTH",
"850 1150 LINE SMOOTH",
"850 1221.8 OFFCURVE",
"791.798 1280 OFFCURVE",
"720 1280 CURVE SMOOTH"
);
},
{
closed = 1;
nodes = (
"1158.2 770 OFFCURVE",
"1100 711.798 OFFCURVE",
"1100 640 CURVE SMOOTH",
"1100 260 LINE",
"720 260 LINE SMOOTH",
"648.202 260 OFFCURVE",
"590 201.798 OFFCURVE",
"590 130 CURVE SMOOTH",
"590 58.202 OFFCURVE",
"648.202 0 OFFCURVE",
"720 0 CURVE SMOOTH",
"1230 0 LINE SMOOTH",
"1301.8 0 OFFCURVE",
"1360 58.202 OFFCURVE",
"1360 130 CURVE SMOOTH",
"1360 640 LINE SMOOTH",
"1360 711.798 OFFCURVE",
"1301.8 770 OFFCURVE",
"1230 770 CURVE SMOOTH"
);
},
{
closed = 1;
nodes = (
"590 770 LINE",
"340 770 LINE",
"340 1020 LINE",
"590 1020 LINE"
);
}
);
width = 1440;
}
);
unicode = 00B0;
},
